<svg xmlns="http://www.w3.org/2000/svg" xmlns:xlink="http://www.w3.org/1999/xlink" width="848" height="1088" contentScriptType="application/ecmascript" contentStyleType="text/css" style="width:848px;height:1088px" preserveAspectRatio="none" version="1.1" viewBox="0 0 848 1088" zoomAndPan="magnify"><defs><filter id="f1fwm71y5imsn6" width="300%" height="300%" x="-1" y="-1"><feGaussianBlur result="blurOut" stdDeviation="2"/><feColorMatrix in="blurOut" result="blurOut2" type="matrix" values="0 0 0 0 0 0 0 0 0 0 0 0 0 0 0 0 0 0 .4 0"/><feOffset dx="4" dy="4" in="blurOut2" result="blurOut3"/><feBlend in="SourceGraphic" in2="blurOut3" mode="normal"/></filter></defs><g><rect id="VertexArray" width="145" height="60.805" x="299" y="194.5" fill="#FEFECE" codeLine="2" filter="url(#f1fwm71y5imsn6)" style="stroke:#a80036;stroke-width:1.5"/><ellipse cx="332.45" cy="210.5" fill="#ADD1B2" rx="11" ry="11" style="stroke:#a80036;stroke-width:1"/><path fill="#000" d="M335.4188,216.1406 Q334.8406,216.4375 334.2,216.5781 Q333.5594,216.7344 332.8563,216.7344 Q330.3563,216.7344 329.0281,215.0938 Q327.7156,213.4375 327.7156,210.3125 Q327.7156,207.1875 329.0281,205.5313 Q330.3563,203.875 332.8563,203.875 Q333.5594,203.875 334.2,204.0313 Q334.8563,204.1875 335.4188,204.4844 L335.4188,207.2031 Q334.7938,206.625 334.2,206.3594 Q333.6063,206.0781 332.9813,206.0781 Q331.6375,206.0781 330.95,207.1563 Q330.2625,208.2188 330.2625,210.3125 Q330.2625,212.4063 330.95,213.4844 Q331.6375,214.5469 332.9813,214.5469 Q333.6063,214.5469 334.2,214.2813 Q334.7938,214 335.4188,213.4219 L335.4188,216.1406 Z"/><text x="350.55" y="214.654" fill="#000" font-family="sans-serif" font-size="12" lengthAdjust="spacing" textLength="72">VertexArray</text><line style="stroke:#a80036;stroke-width:1.5" x1="300" x2="443" y1="226.5" y2="226.5"/><text x="305" y="240.71" fill="#000" font-family="sans-serif" font-size="11" lengthAdjust="spacing" textLength="133">element_buffer : Buffer</text><line style="stroke:#a80036;stroke-width:1.5" x1="300" x2="443" y1="247.305" y2="247.305"/><rect id="VertexBufferBinding" width="155" height="112.023" x="294" y="636" fill="#FEFECE" codeLine="6" filter="url(#f1fwm71y5imsn6)" style="stroke:#a80036;stroke-width:1.5"/><ellipse cx="309" cy="652" fill="#ADD1B2" rx="11" ry="11" style="stroke:#a80036;stroke-width:1"/><path fill="#000" d="M311.9688,657.6406 Q311.3906,657.9375 310.75,658.0781 Q310.1094,658.2344 309.4063,658.2344 Q306.9063,658.2344 305.5781,656.5938 Q304.2656,654.9375 304.2656,651.8125 Q304.2656,648.6875 305.5781,647.0313 Q306.9063,645.375 309.4063,645.375 Q310.1094,645.375 310.75,645.5313 Q311.4063,645.6875 311.9688,645.9844 L311.9688,648.7031 Q311.3438,648.125 310.75,647.8594 Q310.1563,647.5781 309.5313,647.5781 Q308.1875,647.5781 307.5,648.6563 Q306.8125,649.7188 306.8125,651.8125 Q306.8125,653.9063 307.5,654.9844 Q308.1875,656.0469 309.5313,656.0469 Q310.1563,656.0469 310.75,655.7813 Q311.3438,655.5 311.9688,654.9219 L311.9688,657.6406 Z"/><text x="323" y="656.154" fill="#000" font-family="sans-serif" font-size="12" lengthAdjust="spacing" textLength="123">VertexBufferBinding</text><line style="stroke:#a80036;stroke-width:1.5" x1="295" x2="448" y1="668" y2="668"/><text x="300" y="682.21" fill="#000" font-family="sans-serif" font-size="11" lengthAdjust="spacing" textLength="93">bindingindex: int</text><line style="stroke:#a80036;stroke-width:1" x1="295" x2="448" y1="688.805" y2="688.805"/><text x="300" y="703.015" fill="#000" font-family="sans-serif" font-size="11" lengthAdjust="spacing" textLength="77">buffer: Buffer</text><text x="300" y="715.82" fill="#000" font-family="sans-serif" font-size="11" lengthAdjust="spacing" textLength="55">offset: int</text><text x="300" y="728.625" fill="#000" font-family="sans-serif" font-size="11" lengthAdjust="spacing" textLength="55">stride: int</text><text x="300" y="741.429" fill="#000" font-family="sans-serif" font-size="11" lengthAdjust="spacing" textLength="60">divisor: int</text><rect id="VertexArrayAttrib" width="138" height="137.633" x="75.5" y="382" fill="#FEFECE" codeLine="15" filter="url(#f1fwm71y5imsn6)" style="stroke:#a80036;stroke-width:1.5"/><ellipse cx="90.5" cy="398" fill="#ADD1B2" rx="11" ry="11" style="stroke:#a80036;stroke-width:1"/><path fill="#000" d="M93.4688,403.6406 Q92.8906,403.9375 92.25,404.0781 Q91.6094,404.2344 90.9063,404.2344 Q88.4063,404.2344 87.0781,402.5938 Q85.7656,400.9375 85.7656,397.8125 Q85.7656,394.6875 87.0781,393.0313 Q88.4063,391.375 90.9063,391.375 Q91.6094,391.375 92.25,391.5313 Q92.9063,391.6875 93.4688,391.9844 L93.4688,394.7031 Q92.8438,394.125 92.25,393.8594 Q91.6563,393.5781 91.0313,393.5781 Q89.6875,393.5781 89,394.6563 Q88.3125,395.7188 88.3125,397.8125 Q88.3125,399.9063 89,400.9844 Q89.6875,402.0469 91.0313,402.0469 Q91.6563,402.0469 92.25,401.7813 Q92.8438,401.5 93.4688,400.9219 L93.4688,403.6406 Z"/><text x="104.5" y="402.154" fill="#000" font-family="sans-serif" font-size="12" lengthAdjust="spacing" textLength="106">VertexArrayAttrib</text><line style="stroke:#a80036;stroke-width:1.5" x1="76.5" x2="212.5" y1="414" y2="414"/><text x="81.5" y="428.21" fill="#000" font-family="sans-serif" font-size="11" lengthAdjust="spacing" textLength="82">attribindex: int</text><line style="stroke:#a80036;stroke-width:1" x1="76.5" x2="212.5" y1="434.805" y2="434.805"/><text x="81.5" y="449.015" fill="#000" font-family="sans-serif" font-size="11" lengthAdjust="spacing" textLength="93">bindingindex: int</text><text x="81.5" y="461.82" fill="#000" font-family="sans-serif" font-size="11" lengthAdjust="spacing" textLength="87">type: data_type</text><text x="81.5" y="474.625" fill="#000" font-family="sans-serif" font-size="11" lengthAdjust="spacing" textLength="125">values_per_vertex: int</text><text x="81.5" y="487.429" fill="#000" font-family="sans-serif" font-size="11" lengthAdjust="spacing" textLength="55">offset: int</text><text x="81.5" y="500.234" fill="#000" font-family="sans-serif" font-size="11" lengthAdjust="spacing" textLength="94">normalized: bool</text><text x="81.5" y="513.039" fill="#000" font-family="sans-serif" font-size="11" lengthAdjust="spacing" textLength="77">enabled: bool</text><rect id="BufferTarget" width="126" height="227.266" x="708.5" y="847" fill="#FEFECE" codeLine="27" filter="url(#f1fwm71y5imsn6)" style="stroke:#a80036;stroke-width:1.5"/><ellipse cx="730.7" cy="863" fill="#EB937F" rx="11" ry="11" style="stroke:#a80036;stroke-width:1"/><path fill="#000" d="M734.8094,869 L727.0906,869 L727.0906,856.6094 L734.8094,856.6094 L734.8094,858.7656 L729.5438,858.7656 L729.5438,861.4375 L734.3094,861.4375 L734.3094,863.5938 L729.5438,863.5938 L729.5438,866.8438 L734.8094,866.8438 L734.8094,869 Z"/><text x="746.3" y="867.154" fill="#000" font-family="sans-serif" font-size="12" lengthAdjust="spacing" textLength="78">BufferTarget</text><line style="stroke:#a80036;stroke-width:1.5" x1="709.5" x2="833.5" y1="879" y2="879"/><text x="714.5" y="893.21" fill="#000" font-family="sans-serif" font-size="11" lengthAdjust="spacing" textLength="30">array</text><text x="714.5" y="906.015" fill="#000" font-family="sans-serif" font-size="11" lengthAdjust="spacing" textLength="82">element_array</text><text x="714.5" y="918.82" fill="#000" font-family="sans-serif" font-size="11" lengthAdjust="spacing" textLength="44">uniform</text><text x="714.5" y="931.625" fill="#000" font-family="sans-serif" font-size="11" lengthAdjust="spacing" textLength="90">shared_storage</text><text x="714.5" y="944.429" fill="#000" font-family="sans-serif" font-size="11" lengthAdjust="spacing" textLength="87">atomic_counter</text><text x="714.5" y="957.234" fill="#000" font-family="sans-serif" font-size="11" lengthAdjust="spacing" textLength="40">texture</text><text x="714.5" y="970.039" fill="#000" font-family="sans-serif" font-size="11" lengthAdjust="spacing" textLength="32">query</text><text x="714.5" y="982.843" fill="#000" font-family="sans-serif" font-size="11" lengthAdjust="spacing" textLength="114">transform_feedback</text><text x="714.5" y="995.648" fill="#000" font-family="sans-serif" font-size="11" lengthAdjust="spacing" textLength="76">draw_indirect</text><text x="714.5" y="1008.453" fill="#000" font-family="sans-serif" font-size="11" lengthAdjust="spacing" textLength="96">dispatch_indirect</text><text x="714.5" y="1021.257" fill="#000" font-family="sans-serif" font-size="11" lengthAdjust="spacing" textLength="58">copy_read</text><text x="714.5" y="1034.062" fill="#000" font-family="sans-serif" font-size="11" lengthAdjust="spacing" textLength="60">copy_write</text><text x="714.5" y="1046.867" fill="#000" font-family="sans-serif" font-size="11" lengthAdjust="spacing" textLength="58">pixel_pack</text><text x="714.5" y="1059.671" fill="#000" font-family="sans-serif" font-size="11" lengthAdjust="spacing" textLength="72">pixel_unpack</text><line style="stroke:#a80036;stroke-width:1.5" x1="709.5" x2="833.5" y1="1066.266" y2="1066.266"/><rect id="Buffer" width="69" height="73.609" x="544" y="923.5" fill="#FEFECE" codeLine="44" filter="url(#f1fwm71y5imsn6)" style="stroke:#a80036;stroke-width:1.5"/><ellipse cx="559" cy="939.5" fill="#ADD1B2" rx="11" ry="11" style="stroke:#a80036;stroke-width:1"/><path fill="#000" d="M561.9688,945.1406 Q561.3906,945.4375 560.75,945.5781 Q560.1094,945.7344 559.4063,945.7344 Q556.9063,945.7344 555.5781,944.0938 Q554.2656,942.4375 554.2656,939.3125 Q554.2656,936.1875 555.5781,934.5313 Q556.9063,932.875 559.4063,932.875 Q560.1094,932.875 560.75,933.0313 Q561.4063,933.1875 561.9688,933.4844 L561.9688,936.2031 Q561.3438,935.625 560.75,935.3594 Q560.1563,935.0781 559.5313,935.0781 Q558.1875,935.0781 557.5,936.1563 Q556.8125,937.2188 556.8125,939.3125 Q556.8125,941.4063 557.5,942.4844 Q558.1875,943.5469 559.5313,943.5469 Q560.1563,943.5469 560.75,943.2813 Q561.3438,943 561.9688,942.4219 L561.9688,945.1406 Z"/><text x="573" y="943.654" fill="#000" font-family="sans-serif" font-size="12" lengthAdjust="spacing" textLength="37">Buffer</text><line style="stroke:#a80036;stroke-width:1.5" x1="545" x2="612" y1="955.5" y2="955.5"/><text x="550" y="969.71" fill="#000" font-family="sans-serif" font-size="11" lengthAdjust="spacing" textLength="22">size</text><text x="550" y="982.515" fill="#000" font-family="sans-serif" font-size="11" lengthAdjust="spacing" textLength="28">flags</text><line style="stroke:#a80036;stroke-width:1.5" x1="545" x2="612" y1="989.109" y2="989.109"/><rect id="BufferBinding" width="126" height="73.609" x="669.5" y="655" fill="#FEFECE" codeLine="49" filter="url(#f1fwm71y5imsn6)" style="stroke:#a80036;stroke-width:1.5"/><ellipse cx="689.45" cy="671" fill="#ADD1B2" rx="11" ry="11" style="stroke:#a80036;stroke-width:1"/><path fill="#000" d="M692.4188,676.6406 Q691.8406,676.9375 691.2,677.0781 Q690.5594,677.2344 689.8563,677.2344 Q687.3563,677.2344 686.0281,675.5938 Q684.7156,673.9375 684.7156,670.8125 Q684.7156,667.6875 686.0281,666.0313 Q687.3563,664.375 689.8563,664.375 Q690.5594,664.375 691.2,664.5313 Q691.8563,664.6875 692.4188,664.9844 L692.4188,667.7031 Q691.7938,667.125 691.2,666.8594 Q690.6063,666.5781 689.9813,666.5781 Q688.6375,666.5781 687.95,667.6563 Q687.2625,668.7188 687.2625,670.8125 Q687.2625,672.9063 687.95,673.9844 Q688.6375,675.0469 689.9813,675.0469 Q690.6063,675.0469 691.2,674.7813 Q691.7938,674.5 692.4188,673.9219 L692.4188,676.6406 Z"/><text x="704.55" y="675.154" fill="#000" font-family="sans-serif" font-size="12" lengthAdjust="spacing" textLength="83">BufferBinding</text><line style="stroke:#a80036;stroke-width:1.5" x1="670.5" x2="794.5" y1="687" y2="687"/><text x="675.5" y="701.21" fill="#000" font-family="sans-serif" font-size="11" lengthAdjust="spacing" textLength="77">buffer: Buffer</text><text x="675.5" y="714.015" fill="#000" font-family="sans-serif" font-size="11" lengthAdjust="spacing" textLength="114">target: BufferTarget</text><line style="stroke:#a80036;stroke-width:1.5" x1="670.5" x2="794.5" y1="720.609" y2="720.609"/><rect id="Program" width="116" height="60.805" x="28.5" y="7" fill="#FEFECE" codeLine="54" filter="url(#f1fwm71y5imsn6)" style="stroke:#a80036;stroke-width:1.5"/><ellipse cx="57.45" cy="23" fill="#ADD1B2" rx="11" ry="11" style="stroke:#a80036;stroke-width:1"/><path fill="#000" d="M60.4188,28.6406 Q59.8406,28.9375 59.2,29.0781 Q58.5594,29.2344 57.8563,29.2344 Q55.3563,29.2344 54.0281,27.5938 Q52.7156,25.9375 52.7156,22.8125 Q52.7156,19.6875 54.0281,18.0313 Q55.3563,16.375 57.8563,16.375 Q58.5594,16.375 59.2,16.5313 Q59.8563,16.6875 60.4188,16.9844 L60.4188,19.7031 Q59.7938,19.125 59.2,18.8594 Q58.6063,18.5781 57.9813,18.5781 Q56.6375,18.5781 55.95,19.6563 Q55.2625,20.7188 55.2625,22.8125 Q55.2625,24.9063 55.95,25.9844 Q56.6375,27.0469 57.9813,27.0469 Q58.6063,27.0469 59.2,26.7813 Q59.7938,26.5 60.4188,25.9219 L60.4188,28.6406 Z"/><text x="74.55" y="27.154" fill="#000" font-family="sans-serif" font-size="12" lengthAdjust="spacing" textLength="53">Program</text><line style="stroke:#a80036;stroke-width:1.5" x1="29.5" x2="143.5" y1="39" y2="39"/><text x="34.5" y="53.21" fill="#000" font-family="sans-serif" font-size="11" lengthAdjust="spacing" textLength="104">shaders: Shader[]</text><line style="stroke:#a80036;stroke-width:1.5" x1="29.5" x2="143.5" y1="59.805" y2="59.805"/><rect id="ProgramVertexAttrib" width="159" height="86.414" x="7" y="182" fill="#FEFECE" codeLine="58" filter="url(#f1fwm71y5imsn6)" style="stroke:#a80036;stroke-width:1.5"/><ellipse cx="22" cy="198" fill="#ADD1B2" rx="11" ry="11" style="stroke:#a80036;stroke-width:1"/><path fill="#000" d="M24.9688,203.6406 Q24.3906,203.9375 23.75,204.0781 Q23.1094,204.2344 22.4063,204.2344 Q19.9063,204.2344 18.5781,202.5938 Q17.2656,200.9375 17.2656,197.8125 Q17.2656,194.6875 18.5781,193.0313 Q19.9063,191.375 22.4063,191.375 Q23.1094,191.375 23.75,191.5313 Q24.4063,191.6875 24.9688,191.9844 L24.9688,194.7031 Q24.3438,194.125 23.75,193.8594 Q23.1563,193.5781 22.5313,193.5781 Q21.1875,193.5781 20.5,194.6563 Q19.8125,195.7188 19.8125,197.8125 Q19.8125,199.9063 20.5,200.9844 Q21.1875,202.0469 22.5313,202.0469 Q23.1563,202.0469 23.75,201.7813 Q24.3438,201.5 24.9688,200.9219 L24.9688,203.6406 Z"/><text x="36" y="202.154" fill="#000" font-family="sans-serif" font-size="12" lengthAdjust="spacing" textLength="127">ProgramVertexAttrib</text><line style="stroke:#a80036;stroke-width:1.5" x1="8" x2="165" y1="214" y2="214"/><text x="13" y="228.21" fill="#000" font-family="sans-serif" font-size="11" lengthAdjust="spacing" textLength="73">name: string</text><text x="13" y="241.015" fill="#000" font-family="sans-serif" font-size="11" lengthAdjust="spacing" textLength="87">type: data_type</text><text x="13" y="253.82" fill="#000" font-family="sans-serif" font-size="11" lengthAdjust="spacing" textLength="82">attribindex: int</text><line style="stroke:#a80036;stroke-width:1.5" x1="8" x2="165" y1="260.414" y2="260.414"/><path id="VertexArray-backto-VertexArrayAttrib" fill="none" d="M286.05,241.81 C228.17,254.46 159.12,274.02 141.5,298 C124.15,321.61 122.41,353.32 126.01,381.67" codeLine="64" style="stroke:#a80036;stroke-width:1"/><polygon fill="#A80036" points="298.97 239.06 292.27 236.394 287.232 241.553 293.932 244.219 298.97 239.06" style="stroke:#a80036;stroke-width:1"/><path fill="#FBFB77" d="M146.5,303 L146.5,343 L336.5,343 L336.5,313 L326.5,303 L146.5,303" filter="url(#f1fwm71y5imsn6)" style="stroke:#a80036;stroke-width:1"/><path fill="#FBFB77" d="M326.5,303 L326.5,313 L336.5,313 L326.5,303" style="stroke:#a80036;stroke-width:1"/><text x="152.5" y="320.067" fill="#000" font-family="sans-serif" font-size="13" lengthAdjust="spacing" textLength="169">glEnableVertexAttribArray,</text><text x="152.5" y="335.2" fill="#000" font-family="sans-serif" font-size="13" lengthAdjust="spacing" textLength="134">glVertexAttribFormat</text><path id="VertexArray-backto-VertexBufferBinding" fill="none" d="M371.5,268.94 C371.5,353.65 371.5,542.16 371.5,635.89" codeLine="67" style="stroke:#a80036;stroke-width:1"/><polygon fill="#A80036" points="371.5 255.8 367.5 261.8 371.5 267.8 375.5 261.8 371.5 255.8" style="stroke:#a80036;stroke-width:1"/><path fill="#FBFB77" d="M376.5,436.5 L376.5,461.5 L516.5,461.5 L516.5,446.5 L506.5,436.5 L376.5,436.5" filter="url(#f1fwm71y5imsn6)" style="stroke:#a80036;stroke-width:1"/><path fill="#FBFB77" d="M506.5,436.5 L506.5,446.5 L516.5,446.5 L506.5,436.5" style="stroke:#a80036;stroke-width:1"/><text x="382.5" y="453.567" fill="#000" font-family="sans-serif" font-size="13" lengthAdjust="spacing" textLength="119">glBindVertexBuffer</text><path id="VertexArrayAttrib-to-VertexBufferBinding" fill="none" d="M144.57,520.04 C147.81,549.23 156.12,582.04 175.5,606 C203.74,640.92 249.11,661.82 289.09,674.15" codeLine="70" style="stroke:#a80036;stroke-width:1"/><polygon fill="#A80036" points="293.94 675.61 286.478 669.182 289.153 674.167 284.168 676.842 293.94 675.61" style="stroke:#a80036;stroke-width:1"/><path fill="#FBFB77" d="M180.5,563.5 L180.5,588.5 L336.5,588.5 L336.5,573.5 L326.5,563.5 L180.5,563.5" filter="url(#f1fwm71y5imsn6)" style="stroke:#a80036;stroke-width:1"/><path fill="#FBFB77" d="M326.5,563.5 L326.5,573.5 L336.5,573.5 L326.5,563.5" style="stroke:#a80036;stroke-width:1"/><text x="186.5" y="580.567" fill="#000" font-family="sans-serif" font-size="13" lengthAdjust="spacing" textLength="135">glVertexAttribBinding</text><path id="VertexBufferBinding-to-Buffer" fill="none" d="M414.39,748.22 C453.93,799.13 511.7,873.5 547.1,919.08" codeLine="73" style="stroke:#a80036;stroke-width:1"/><polygon fill="#A80036" points="550.25 923.12 547.875 913.562 547.177 919.176 541.564 918.478 550.25 923.12" style="stroke:#a80036;stroke-width:1"/><text x="463.5" y="802.067" fill="#000" font-family="sans-serif" font-size="13" lengthAdjust="spacing" textLength="81">vertex buffer</text><path id="VertexArray-to-Buffer" fill="none" d="M417.44,255.75 C455.81,283.4 508.17,328.33 533.5,382 C620.37,566.05 598.02,820.01 584.84,918.33" codeLine="75" style="stroke:#a80036;stroke-width:1"/><polygon fill="#A80036" points="584.14 923.46 589.336 915.093 584.825 918.507 581.411 913.997 584.14 923.46" style="stroke:#a80036;stroke-width:1"/><text x="602" y="563.067" fill="#000" font-family="sans-serif" font-size="13" lengthAdjust="spacing" textLength="89">element buffe</text><path fill="#FBFB77" d="M595.5,572.1328 L595.5,597.1328 L693.5,597.1328 L693.5,582.1328 L683.5,572.1328 L595.5,572.1328" filter="url(#f1fwm71y5imsn6)" style="stroke:#a80036;stroke-width:1"/><path fill="#FBFB77" d="M683.5,572.1328 L683.5,582.1328 L693.5,582.1328 L683.5,572.1328" style="stroke:#a80036;stroke-width:1"/><text x="601.5" y="589.2" fill="#000" font-family="sans-serif" font-size="13" lengthAdjust="spacing" textLength="77">glBindBuffer</text><path id="BufferBinding-to-Buffer" fill="none" d="M676.59,729.04 C659.35,742.56 641.71,759.25 629.5,778 C601.46,821.04 588.63,879.53 582.9,918.35" codeLine="78" style="stroke:#a80036;stroke-width:1"/><polygon fill="#A80036" points="582.17 923.45 587.416 915.115 582.885 918.501 579.498 913.97 582.17 923.45" style="stroke:#a80036;stroke-width:1"/><path fill="#FBFB77" d="M634.5,783 L634.5,808 L732.5,808 L732.5,793 L722.5,783 L634.5,783" filter="url(#f1fwm71y5imsn6)" style="stroke:#a80036;stroke-width:1"/><path fill="#FBFB77" d="M722.5,783 L722.5,793 L732.5,793 L722.5,783" style="stroke:#a80036;stroke-width:1"/><text x="640.5" y="800.067" fill="#000" font-family="sans-serif" font-size="13" lengthAdjust="spacing" textLength="77">glBindBuffer</text><path id="BufferBinding-BufferTarget" fill="none" d="M740.4,729.29 C743.5,744.32 746.93,761.95 749.5,778 C753.04,800.1 756.3,823.79 759.17,846.52" codeLine="81" style="stroke:#a80036;stroke-width:1"/><path id="Program-backto-ProgramVertexAttrib" fill="none" d="M86.5,81.4 C86.5,111.59 86.5,151.8 86.5,181.83" codeLine="83" style="stroke:#a80036;stroke-width:1"/><polygon fill="#A80036" points="86.5 68.3 82.5 74.3 86.5 80.3 90.5 74.3 86.5 68.3" style="stroke:#a80036;stroke-width:1"/><path fill="#FBFB77" d="M91.5,103 L91.5,143 L244.5,143 L244.5,113 L234.5,103 L91.5,103" filter="url(#f1fwm71y5imsn6)" style="stroke:#a80036;stroke-width:1"/><path fill="#FBFB77" d="M234.5,103 L234.5,113 L244.5,113 L234.5,103" style="stroke:#a80036;stroke-width:1"/><text x="97.5" y="120.067" fill="#000" font-family="sans-serif" font-size="13" lengthAdjust="spacing" textLength="132">glBindAttribLocation,</text><text x="97.5" y="135.2" fill="#000" font-family="sans-serif" font-size="13" lengthAdjust="spacing" textLength="123">glGetAttribLocation</text><path id="ProgramVertexAttrib-to-VertexArrayAttrib" fill="none" d="M91.93,268.12 C95.58,292.8 101.1,324.44 108.5,352 C110.68,360.12 113.25,368.51 116,376.81" codeLine="86" style="stroke:#a80036;stroke-width:1"/><polygon fill="#A80036" points="117.74 381.97 118.68 372.166 116.155 377.228 111.093 374.703 117.74 381.97" style="stroke:#a80036;stroke-width:1"/></g></svg>