<svg xmlns="http://www.w3.org/2000/svg" xmlns:xlink="http://www.w3.org/1999/xlink" width="714" height="1361" contentScriptType="application/ecmascript" contentStyleType="text/css" style="width:714px;height:1361px" preserveAspectRatio="none" version="1.1" viewBox="0 0 714 1361" zoomAndPan="magnify"><defs><filter id="f3h126mxht62f" width="300%" height="300%" x="-1" y="-1"><feGaussianBlur result="blurOut" stdDeviation="2"/><feColorMatrix in="blurOut" result="blurOut2" type="matrix" values="0 0 0 0 0 0 0 0 0 0 0 0 0 0 0 0 0 0 .4 0"/><feOffset dx="4" dy="4" in="blurOut2" result="blurOut3"/><feBlend in="SourceGraphic" in2="blurOut3" mode="normal"/></filter></defs><g><rect id="connection_kind" width="134" height="99.219" x="145" y="7" fill="#FEFECE" codeLine="1" filter="url(#f3h126mxht62f)" style="stroke:#a80036;stroke-width:1.5"/><ellipse cx="160" cy="23" fill="#EB937F" rx="11" ry="11" style="stroke:#a80036;stroke-width:1"/><path fill="#000" d="M164.1094,29 L156.3906,29 L156.3906,16.6094 L164.1094,16.6094 L164.1094,18.7656 L158.8438,18.7656 L158.8438,21.4375 L163.6094,21.4375 L163.6094,23.5938 L158.8438,23.5938 L158.8438,26.8438 L164.1094,26.8438 L164.1094,29 Z"/><text x="174" y="27.154" fill="#000" font-family="sans-serif" font-size="12" lengthAdjust="spacing" textLength="102">connection_kind</text><line style="stroke:#a80036;stroke-width:1.5" x1="146" x2="278" y1="39" y2="39"/><text x="151" y="53.21" fill="#000" font-family="sans-serif" font-size="11" lengthAdjust="spacing" textLength="50">unknown</text><text x="151" y="66.015" fill="#000" font-family="sans-serif" font-size="11" lengthAdjust="spacing" textLength="62">in_process</text><text x="151" y="78.82" fill="#000" font-family="sans-serif" font-size="11" lengthAdjust="spacing" textLength="104">local_interprocess</text><text x="151" y="91.624" fill="#000" font-family="sans-serif" font-size="11" lengthAdjust="spacing" textLength="119">remote_interprocess</text><line style="stroke:#a80036;stroke-width:1.5" x1="146" x2="278" y1="98.219" y2="98.219"/><rect id="connection_protocol" width="160" height="86.414" x="314" y="13.5" fill="#FEFECE" codeLine="8" filter="url(#f3h126mxht62f)" style="stroke:#a80036;stroke-width:1.5"/><ellipse cx="329" cy="29.5" fill="#EB937F" rx="11" ry="11" style="stroke:#a80036;stroke-width:1"/><path fill="#000" d="M333.1094,35.5 L325.3906,35.5 L325.3906,23.1094 L333.1094,23.1094 L333.1094,25.2656 L327.8438,25.2656 L327.8438,27.9375 L332.6094,27.9375 L332.6094,30.0938 L327.8438,30.0938 L327.8438,33.3438 L333.1094,33.3438 L333.1094,35.5 Z"/><text x="343" y="33.654" fill="#000" font-family="sans-serif" font-size="12" lengthAdjust="spacing" textLength="128">connection_protocol</text><line style="stroke:#a80036;stroke-width:1.5" x1="315" x2="473" y1="45.5" y2="45.5"/><text x="320" y="59.71" fill="#000" font-family="sans-serif" font-size="11" lengthAdjust="spacing" textLength="41">stream</text><text x="320" y="72.515" fill="#000" font-family="sans-serif" font-size="11" lengthAdjust="spacing" textLength="55">datagram</text><text x="320" y="85.32" fill="#000" font-family="sans-serif" font-size="11" lengthAdjust="spacing" textLength="53">message</text><line style="stroke:#a80036;stroke-width:1.5" x1="315" x2="473" y1="91.914" y2="91.914"/><rect id="connection_address_kind" width="191" height="86.414" x="509.5" y="13.5" fill="#FEFECE" codeLine="14" filter="url(#f3h126mxht62f)" style="stroke:#a80036;stroke-width:1.5"/><ellipse cx="524.5" cy="29.5" fill="#EB937F" rx="11" ry="11" style="stroke:#a80036;stroke-width:1"/><path fill="#000" d="M528.6094,35.5 L520.8906,35.5 L520.8906,23.1094 L528.6094,23.1094 L528.6094,25.2656 L523.3438,25.2656 L523.3438,27.9375 L528.1094,27.9375 L528.1094,30.0938 L523.3438,30.0938 L523.3438,33.3438 L528.6094,33.3438 L528.6094,35.5 Z"/><text x="538.5" y="33.654" fill="#000" font-family="sans-serif" font-size="12" lengthAdjust="spacing" textLength="159">connection_address_kind</text><line style="stroke:#a80036;stroke-width:1.5" x1="510.5" x2="699.5" y1="45.5" y2="45.5"/><text x="515.5" y="59.71" fill="#000" font-family="sans-serif" font-size="11" lengthAdjust="spacing" textLength="28">none</text><text x="515.5" y="72.515" fill="#000" font-family="sans-serif" font-size="11" lengthAdjust="spacing" textLength="42">filepath</text><text x="515.5" y="85.32" fill="#000" font-family="sans-serif" font-size="11" lengthAdjust="spacing" textLength="23">ipv4</text><line style="stroke:#a80036;stroke-width:1.5" x1="510.5" x2="699.5" y1="91.914" y2="91.914"/><rect id="message" width="89" height="48" x="61.5" y="1299" fill="#FEFECE" codeLine="20" filter="url(#f3h126mxht62f)" style="stroke:#a80036;stroke-width:1.5"/><ellipse cx="76.5" cy="1315" fill="#ADD1B2" rx="11" ry="11" style="stroke:#a80036;stroke-width:1"/><path fill="#000" d="M79.4688,1320.6406 Q78.8906,1320.9375 78.25,1321.0781 Q77.6094,1321.2344 76.9063,1321.2344 Q74.4063,1321.2344 73.0781,1319.5938 Q71.7656,1317.9375 71.7656,1314.8125 Q71.7656,1311.6875 73.0781,1310.0313 Q74.4063,1308.375 76.9063,1308.375 Q77.6094,1308.375 78.25,1308.5313 Q78.9063,1308.6875 79.4688,1308.9844 L79.4688,1311.7031 Q78.8438,1311.125 78.25,1310.8594 Q77.6563,1310.5781 77.0313,1310.5781 Q75.6875,1310.5781 75,1311.6563 Q74.3125,1312.7188 74.3125,1314.8125 Q74.3125,1316.9063 75,1317.9844 Q75.6875,1319.0469 77.0313,1319.0469 Q77.6563,1319.0469 78.25,1318.7813 Q78.8438,1318.5 79.4688,1317.9219 L79.4688,1320.6406 Z"/><text x="90.5" y="1319.154" fill="#000" font-family="sans-serif" font-size="12" lengthAdjust="spacing" textLength="57">message</text><line style="stroke:#a80036;stroke-width:1.5" x1="62.5" x2="149.5" y1="1331" y2="1331"/><line style="stroke:#a80036;stroke-width:1.5" x1="62.5" x2="149.5" y1="1339" y2="1339"/><rect id="fetch_handler" width="118" height="60.805" x="375" y="1161" fill="#FEFECE" codeLine="23" filter="url(#f3h126mxht62f)" style="stroke:#a80036;stroke-width:1.5"/><ellipse cx="390" cy="1177" fill="#ADD1B2" rx="11" ry="11" style="stroke:#a80036;stroke-width:1"/><path fill="#000" d="M392.9688,1182.6406 Q392.3906,1182.9375 391.75,1183.0781 Q391.1094,1183.2344 390.4063,1183.2344 Q387.9063,1183.2344 386.5781,1181.5938 Q385.2656,1179.9375 385.2656,1176.8125 Q385.2656,1173.6875 386.5781,1172.0313 Q387.9063,1170.375 390.4063,1170.375 Q391.1094,1170.375 391.75,1170.5313 Q392.4063,1170.6875 392.9688,1170.9844 L392.9688,1173.7031 Q392.3438,1173.125 391.75,1172.8594 Q391.1563,1172.5781 390.5313,1172.5781 Q389.1875,1172.5781 388.5,1173.6563 Q387.8125,1174.7188 387.8125,1176.8125 Q387.8125,1178.9063 388.5,1179.9844 Q389.1875,1181.0469 390.5313,1181.0469 Q391.1563,1181.0469 391.75,1180.7813 Q392.3438,1180.5 392.9688,1179.9219 L392.9688,1182.6406 Z"/><text x="404" y="1181.154" fill="#000" font-family="sans-serif" font-size="12" lengthAdjust="spacing" textLength="86">fetch_handler</text><line style="stroke:#a80036;stroke-width:1.5" x1="376" x2="492" y1="1193" y2="1193"/><line style="stroke:#a80036;stroke-width:1.5" x1="376" x2="492" y1="1201" y2="1201"/><ellipse cx="386" cy="1212" fill="#84BE84" rx="3" ry="3" style="stroke:#038048;stroke-width:1"/><text x="395" y="1215.21" fill="#000" font-family="sans-serif" font-size="11" lengthAdjust="spacing" textLength="69">operator(...)</text><rect id="connection_info" width="131" height="48" x="328.5" y="189.5" fill="#FEFECE" codeLine="27" filter="url(#f3h126mxht62f)" style="stroke:#a80036;stroke-width:1.5"/><ellipse cx="343.5" cy="205.5" fill="#B4A7E5" rx="11" ry="11" style="stroke:#a80036;stroke-width:1"/><path fill="#000" d="M339.4219,201.2656 L339.4219,199.1094 L346.8125,199.1094 L346.8125,201.2656 L344.3438,201.2656 L344.3438,209.3438 L346.8125,209.3438 L346.8125,211.5 L339.4219,211.5 L339.4219,209.3438 L341.8906,209.3438 L341.8906,201.2656 L339.4219,201.2656 Z"/><text x="357.5" y="209.654" fill="#000" font-family="sans-serif" font-size="12" font-style="italic" lengthAdjust="spacing" textLength="99">connection_info</text><line style="stroke:#a80036;stroke-width:1.5" x1="329.5" x2="458.5" y1="221.5" y2="221.5"/><line style="stroke:#a80036;stroke-width:1.5" x1="329.5" x2="458.5" y1="229.5" y2="229.5"/><rect id="connection" width="128" height="99.219" x="330" y="860" fill="#FEFECE" codeLine="30" filter="url(#f3h126mxht62f)" style="stroke:#a80036;stroke-width:1.5"/><ellipse cx="356.7" cy="876" fill="#B4A7E5" rx="11" ry="11" style="stroke:#a80036;stroke-width:1"/><path fill="#000" d="M352.6219,871.7656 L352.6219,869.6094 L360.0125,869.6094 L360.0125,871.7656 L357.5438,871.7656 L357.5438,879.8438 L360.0125,879.8438 L360.0125,882 L352.6219,882 L352.6219,879.8438 L355.0906,879.8438 L355.0906,871.7656 L352.6219,871.7656 Z"/><text x="373.3" y="880.154" fill="#000" font-family="sans-serif" font-size="12" font-style="italic" lengthAdjust="spacing" textLength="70">connection</text><line style="stroke:#a80036;stroke-width:1.5" x1="331" x2="457" y1="892" y2="892"/><line style="stroke:#a80036;stroke-width:1.5" x1="331" x2="457" y1="900" y2="900"/><ellipse cx="341" cy="911" fill="#84BE84" rx="3" ry="3" style="stroke:#038048;stroke-width:1"/><text x="350" y="914.21" fill="#000" font-family="sans-serif" font-size="11" lengthAdjust="spacing" textLength="47">update()</text><ellipse cx="341" cy="923.805" fill="#84BE84" rx="3" ry="3" style="stroke:#038048;stroke-width:1"/><text x="350" y="927.015" fill="#000" font-family="sans-serif" font-size="11" lengthAdjust="spacing" textLength="62">is_usable()</text><ellipse cx="341" cy="936.609" fill="#84BE84" rx="3" ry="3" style="stroke:#038048;stroke-width:1"/><text x="350" y="939.82" fill="#000" font-family="sans-serif" font-size="11" lengthAdjust="spacing" textLength="36">send()</text><ellipse cx="341" cy="949.414" fill="#84BE84" rx="3" ry="3" style="stroke:#038048;stroke-width:1"/><text x="350" y="952.625" fill="#000" font-family="sans-serif" font-size="11" lengthAdjust="spacing" textLength="102">fetch_messages()</text><rect id="connection_user" width="135" height="60.805" x="326.5" y="722" fill="#FEFECE" codeLine="37" filter="url(#f3h126mxht62f)" style="stroke:#a80036;stroke-width:1.5"/><ellipse cx="341.5" cy="738" fill="#B4A7E5" rx="11" ry="11" style="stroke:#a80036;stroke-width:1"/><path fill="#000" d="M337.4219,733.7656 L337.4219,731.6094 L344.8125,731.6094 L344.8125,733.7656 L342.3438,733.7656 L342.3438,741.8438 L344.8125,741.8438 L344.8125,744 L337.4219,744 L337.4219,741.8438 L339.8906,741.8438 L339.8906,733.7656 L337.4219,733.7656 Z"/><text x="355.5" y="742.154" fill="#000" font-family="sans-serif" font-size="12" font-style="italic" lengthAdjust="spacing" textLength="103">connection_user</text><line style="stroke:#a80036;stroke-width:1.5" x1="327.5" x2="460.5" y1="754" y2="754"/><line style="stroke:#a80036;stroke-width:1.5" x1="327.5" x2="460.5" y1="762" y2="762"/><ellipse cx="337.5" cy="773" fill="#84BE84" rx="3" ry="3" style="stroke:#038048;stroke-width:1"/><text x="346.5" y="776.21" fill="#000" font-family="sans-serif" font-size="11" lengthAdjust="spacing" textLength="96">add_connection()</text><rect id="concrete_connection" width="164" height="48" x="315" y="1036" fill="#FEFECE" codeLine="41" filter="url(#f3h126mxht62f)" style="stroke:#a80036;stroke-width:1.5"/><ellipse cx="330" cy="1052" fill="#ADD1B2" rx="11" ry="11" style="stroke:#a80036;stroke-width:1"/><path fill="#000" d="M332.9688,1057.6406 Q332.3906,1057.9375 331.75,1058.0781 Q331.1094,1058.2344 330.4063,1058.2344 Q327.9063,1058.2344 326.5781,1056.5938 Q325.2656,1054.9375 325.2656,1051.8125 Q325.2656,1048.6875 326.5781,1047.0313 Q327.9063,1045.375 330.4063,1045.375 Q331.1094,1045.375 331.75,1045.5313 Q332.4063,1045.6875 332.9688,1045.9844 L332.9688,1048.7031 Q332.3438,1048.125 331.75,1047.8594 Q331.1563,1047.5781 330.5313,1047.5781 Q329.1875,1047.5781 328.5,1048.6563 Q327.8125,1049.7188 327.8125,1051.8125 Q327.8125,1053.9063 328.5,1054.9844 Q329.1875,1056.0469 330.5313,1056.0469 Q331.1563,1056.0469 331.75,1055.7813 Q332.3438,1055.5 332.9688,1054.9219 L332.9688,1057.6406 Z"/><text x="344" y="1056.154" fill="#000" font-family="sans-serif" font-size="12" lengthAdjust="spacing" textLength="132">concrete_connection</text><line style="stroke:#a80036;stroke-width:1.5" x1="316" x2="478" y1="1068" y2="1068"/><line style="stroke:#a80036;stroke-width:1.5" x1="316" x2="478" y1="1076" y2="1076"/><rect id="concrete_connector" width="158" height="60.805" x="528" y="1161" fill="#FEFECE" codeLine="44" filter="url(#f3h126mxht62f)" style="stroke:#a80036;stroke-width:1.5"/><ellipse cx="543" cy="1177" fill="#ADD1B2" rx="11" ry="11" style="stroke:#a80036;stroke-width:1"/><path fill="#000" d="M545.9688,1182.6406 Q545.3906,1182.9375 544.75,1183.0781 Q544.1094,1183.2344 543.4063,1183.2344 Q540.9063,1183.2344 539.5781,1181.5938 Q538.2656,1179.9375 538.2656,1176.8125 Q538.2656,1173.6875 539.5781,1172.0313 Q540.9063,1170.375 543.4063,1170.375 Q544.1094,1170.375 544.75,1170.5313 Q545.4063,1170.6875 545.9688,1170.9844 L545.9688,1173.7031 Q545.3438,1173.125 544.75,1172.8594 Q544.1563,1172.5781 543.5313,1172.5781 Q542.1875,1172.5781 541.5,1173.6563 Q540.8125,1174.7188 540.8125,1176.8125 Q540.8125,1178.9063 541.5,1179.9844 Q542.1875,1181.0469 543.5313,1181.0469 Q544.1563,1181.0469 544.75,1180.7813 Q545.3438,1180.5 545.9688,1179.9219 L545.9688,1182.6406 Z"/><text x="557" y="1181.154" fill="#000" font-family="sans-serif" font-size="12" lengthAdjust="spacing" textLength="126">concrete_connector</text><line style="stroke:#a80036;stroke-width:1.5" x1="529" x2="685" y1="1193" y2="1193"/><line style="stroke:#a80036;stroke-width:1.5" x1="529" x2="685" y1="1201" y2="1201"/><ellipse cx="539" cy="1212" fill="#84BE84" rx="3" ry="3" style="stroke:#038048;stroke-width:1"/><text x="548" y="1215.21" fill="#000" font-family="sans-serif" font-size="11" lengthAdjust="spacing" textLength="64">reconnect()</text><rect id="concrete_server_connection" width="209" height="48" x="130.5" y="1167.5" fill="#FEFECE" codeLine="48" filter="url(#f3h126mxht62f)" style="stroke:#a80036;stroke-width:1.5"/><ellipse cx="145.5" cy="1183.5" fill="#ADD1B2" rx="11" ry="11" style="stroke:#a80036;stroke-width:1"/><path fill="#000" d="M148.4688,1189.1406 Q147.8906,1189.4375 147.25,1189.5781 Q146.6094,1189.7344 145.9063,1189.7344 Q143.4063,1189.7344 142.0781,1188.0938 Q140.7656,1186.4375 140.7656,1183.3125 Q140.7656,1180.1875 142.0781,1178.5313 Q143.4063,1176.875 145.9063,1176.875 Q146.6094,1176.875 147.25,1177.0313 Q147.9063,1177.1875 148.4688,1177.4844 L148.4688,1180.2031 Q147.8438,1179.625 147.25,1179.3594 Q146.6563,1179.0781 146.0313,1179.0781 Q144.6875,1179.0781 144,1180.1563 Q143.3125,1181.2188 143.3125,1183.3125 Q143.3125,1185.4063 144,1186.4844 Q144.6875,1187.5469 146.0313,1187.5469 Q146.6563,1187.5469 147.25,1187.2813 Q147.8438,1187 148.4688,1186.4219 L148.4688,1189.1406 Z"/><text x="159.5" y="1187.654" fill="#000" font-family="sans-serif" font-size="12" lengthAdjust="spacing" textLength="177">concrete_server_connection</text><line style="stroke:#a80036;stroke-width:1.5" x1="131.5" x2="338.5" y1="1199.5" y2="1199.5"/><line style="stroke:#a80036;stroke-width:1.5" x1="131.5" x2="338.5" y1="1207.5" y2="1207.5"/><rect id="accept_handler" width="129" height="60.805" x="161.5" y="722" fill="#FEFECE" codeLine="51" filter="url(#f3h126mxht62f)" style="stroke:#a80036;stroke-width:1.5"/><ellipse cx="176.5" cy="738" fill="#ADD1B2" rx="11" ry="11" style="stroke:#a80036;stroke-width:1"/><path fill="#000" d="M179.4688,743.6406 Q178.8906,743.9375 178.25,744.0781 Q177.6094,744.2344 176.9063,744.2344 Q174.4063,744.2344 173.0781,742.5938 Q171.7656,740.9375 171.7656,737.8125 Q171.7656,734.6875 173.0781,733.0313 Q174.4063,731.375 176.9063,731.375 Q177.6094,731.375 178.25,731.5313 Q178.9063,731.6875 179.4688,731.9844 L179.4688,734.7031 Q178.8438,734.125 178.25,733.8594 Q177.6563,733.5781 177.0313,733.5781 Q175.6875,733.5781 175,734.6563 Q174.3125,735.7188 174.3125,737.8125 Q174.3125,739.9063 175,740.9844 Q175.6875,742.0469 177.0313,742.0469 Q177.6563,742.0469 178.25,741.7813 Q178.8438,741.5 179.4688,740.9219 L179.4688,743.6406 Z"/><text x="190.5" y="742.154" fill="#000" font-family="sans-serif" font-size="12" lengthAdjust="spacing" textLength="97">accept_handler</text><line style="stroke:#a80036;stroke-width:1.5" x1="162.5" x2="289.5" y1="754" y2="754"/><line style="stroke:#a80036;stroke-width:1.5" x1="162.5" x2="289.5" y1="762" y2="762"/><ellipse cx="172.5" cy="773" fill="#84BE84" rx="3" ry="3" style="stroke:#038048;stroke-width:1"/><text x="181.5" y="776.21" fill="#000" font-family="sans-serif" font-size="11" lengthAdjust="spacing" textLength="57">operator()</text><rect id="acceptor" width="137" height="73.609" x="145.5" y="321" fill="#FEFECE" codeLine="55" filter="url(#f3h126mxht62f)" style="stroke:#a80036;stroke-width:1.5"/><ellipse cx="182.55" cy="337" fill="#B4A7E5" rx="11" ry="11" style="stroke:#a80036;stroke-width:1"/><path fill="#000" d="M178.4719,332.7656 L178.4719,330.6094 L185.8625,330.6094 L185.8625,332.7656 L183.3938,332.7656 L183.3938,340.8438 L185.8625,340.8438 L185.8625,343 L178.4719,343 L178.4719,340.8438 L180.9406,340.8438 L180.9406,332.7656 L178.4719,332.7656 Z"/><text x="201.45" y="341.154" fill="#000" font-family="sans-serif" font-size="12" font-style="italic" lengthAdjust="spacing" textLength="56">acceptor</text><line style="stroke:#a80036;stroke-width:1.5" x1="146.5" x2="281.5" y1="353" y2="353"/><line style="stroke:#a80036;stroke-width:1.5" x1="146.5" x2="281.5" y1="361" y2="361"/><ellipse cx="156.5" cy="372" fill="#84BE84" rx="3" ry="3" style="stroke:#038048;stroke-width:1"/><text x="165.5" y="375.21" fill="#000" font-family="sans-serif" font-size="11" lengthAdjust="spacing" textLength="47">update()</text><ellipse cx="156.5" cy="384.805" fill="#84BE84" rx="3" ry="3" style="stroke:#038048;stroke-width:1"/><text x="165.5" y="388.015" fill="#000" font-family="sans-serif" font-size="11" lengthAdjust="spacing" textLength="111">process_accepted()</text><rect id="concrete_acceptor" width="150" height="48" x="140" y="597" fill="#FEFECE" codeLine="60" filter="url(#f3h126mxht62f)" style="stroke:#a80036;stroke-width:1.5"/><ellipse cx="155" cy="613" fill="#ADD1B2" rx="11" ry="11" style="stroke:#a80036;stroke-width:1"/><path fill="#000" d="M157.9688,618.6406 Q157.3906,618.9375 156.75,619.0781 Q156.1094,619.2344 155.4063,619.2344 Q152.9063,619.2344 151.5781,617.5938 Q150.2656,615.9375 150.2656,612.8125 Q150.2656,609.6875 151.5781,608.0313 Q152.9063,606.375 155.4063,606.375 Q156.1094,606.375 156.75,606.5313 Q157.4063,606.6875 157.9688,606.9844 L157.9688,609.7031 Q157.3438,609.125 156.75,608.8594 Q156.1563,608.5781 155.5313,608.5781 Q154.1875,608.5781 153.5,609.6563 Q152.8125,610.7188 152.8125,612.8125 Q152.8125,614.9063 153.5,615.9844 Q154.1875,617.0469 155.5313,617.0469 Q156.1563,617.0469 156.75,616.7813 Q157.3438,616.5 157.9688,615.9219 L157.9688,618.6406 Z"/><text x="169" y="617.154" fill="#000" font-family="sans-serif" font-size="12" lengthAdjust="spacing" textLength="118">concrete_acceptor</text><line style="stroke:#a80036;stroke-width:1.5" x1="141" x2="289" y1="629" y2="629"/><line style="stroke:#a80036;stroke-width:1.5" x1="141" x2="289" y1="637" y2="637"/><rect id="acceptor_user" width="121" height="60.805" x="153.5" y="183" fill="#FEFECE" codeLine="63" filter="url(#f3h126mxht62f)" style="stroke:#a80036;stroke-width:1.5"/><ellipse cx="168.5" cy="199" fill="#B4A7E5" rx="11" ry="11" style="stroke:#a80036;stroke-width:1"/><path fill="#000" d="M164.4219,194.7656 L164.4219,192.6094 L171.8125,192.6094 L171.8125,194.7656 L169.3438,194.7656 L169.3438,202.8438 L171.8125,202.8438 L171.8125,205 L164.4219,205 L164.4219,202.8438 L166.8906,202.8438 L166.8906,194.7656 L164.4219,194.7656 Z"/><text x="182.5" y="203.154" fill="#000" font-family="sans-serif" font-size="12" font-style="italic" lengthAdjust="spacing" textLength="89">acceptor_user</text><line style="stroke:#a80036;stroke-width:1.5" x1="154.5" x2="273.5" y1="215" y2="215"/><line style="stroke:#a80036;stroke-width:1.5" x1="154.5" x2="273.5" y1="223" y2="223"/><ellipse cx="164.5" cy="234" fill="#84BE84" rx="3" ry="3" style="stroke:#038048;stroke-width:1"/><text x="173.5" y="237.21" fill="#000" font-family="sans-serif" font-size="11" lengthAdjust="spacing" textLength="84">add_acceptor()</text><rect id="connection_factory" width="152" height="73.609" x="318" y="321" fill="#FEFECE" codeLine="67" filter="url(#f3h126mxht62f)" style="stroke:#a80036;stroke-width:1.5"/><ellipse cx="333" cy="337" fill="#B4A7E5" rx="11" ry="11" style="stroke:#a80036;stroke-width:1"/><path fill="#000" d="M328.9219,332.7656 L328.9219,330.6094 L336.3125,330.6094 L336.3125,332.7656 L333.8438,332.7656 L333.8438,340.8438 L336.3125,340.8438 L336.3125,343 L328.9219,343 L328.9219,340.8438 L331.3906,340.8438 L331.3906,332.7656 L328.9219,332.7656 Z"/><text x="347" y="341.154" fill="#000" font-family="sans-serif" font-size="12" font-style="italic" lengthAdjust="spacing" textLength="120">connection_factory</text><line style="stroke:#a80036;stroke-width:1.5" x1="319" x2="469" y1="353" y2="353"/><line style="stroke:#a80036;stroke-width:1.5" x1="319" x2="469" y1="361" y2="361"/><ellipse cx="329" cy="372" fill="#84BE84" rx="3" ry="3" style="stroke:#038048;stroke-width:1"/><text x="338" y="375.21" fill="#000" font-family="sans-serif" font-size="11" lengthAdjust="spacing" textLength="94">make_acceptor()</text><ellipse cx="329" cy="384.805" fill="#84BE84" rx="3" ry="3" style="stroke:#038048;stroke-width:1"/><text x="338" y="388.015" fill="#000" font-family="sans-serif" font-size="11" lengthAdjust="spacing" textLength="101">make_connector()</text><rect id="concrete_factory" width="137" height="48" x="327.5" y="472" fill="#FEFECE" codeLine="72" filter="url(#f3h126mxht62f)" style="stroke:#a80036;stroke-width:1.5"/><ellipse cx="342.5" cy="488" fill="#ADD1B2" rx="11" ry="11" style="stroke:#a80036;stroke-width:1"/><path fill="#000" d="M345.4688,493.6406 Q344.8906,493.9375 344.25,494.0781 Q343.6094,494.2344 342.9063,494.2344 Q340.4063,494.2344 339.0781,492.5938 Q337.7656,490.9375 337.7656,487.8125 Q337.7656,484.6875 339.0781,483.0313 Q340.4063,481.375 342.9063,481.375 Q343.6094,481.375 344.25,481.5313 Q344.9063,481.6875 345.4688,481.9844 L345.4688,484.7031 Q344.8438,484.125 344.25,483.8594 Q343.6563,483.5781 343.0313,483.5781 Q341.6875,483.5781 341,484.6563 Q340.3125,485.7188 340.3125,487.8125 Q340.3125,489.9063 341,490.9844 Q341.6875,492.0469 343.0313,492.0469 Q343.6563,492.0469 344.25,491.7813 Q344.8438,491.5 345.4688,490.9219 L345.4688,493.6406 Z"/><text x="356.5" y="492.154" fill="#000" font-family="sans-serif" font-size="12" lengthAdjust="spacing" textLength="105">concrete_factory</text><line style="stroke:#a80036;stroke-width:1.5" x1="328.5" x2="463.5" y1="504" y2="504"/><line style="stroke:#a80036;stroke-width:1.5" x1="328.5" x2="463.5" y1="512" y2="512"/><path id="connection_kind-backto-connection_info" fill="none" d="M272.93,109.39 C304.66,136.41 341.89,168.12 366.6,189.16" codeLine="75" style="stroke:#a80036;stroke-width:1"/><polygon fill="#A80036" points="269.09 106.12 273.339 115.005 272.893 109.366 278.533 108.92 269.09 106.12" style="stroke:#a80036;stroke-width:1"/><text x="321" y="149.067" fill="#000" font-family="sans-serif" font-size="13" lengthAdjust="spacing" textLength="23">has</text><path id="connection_protocol-backto-connection_info" fill="none" d="M394,105.01 C394,133.02 394,167.21 394,189.4" codeLine="76" style="stroke:#a80036;stroke-width:1"/><polygon fill="#A80036" points="394 99.85 390 108.85 394 104.85 398 108.85 394 99.85" style="stroke:#a80036;stroke-width:1"/><text x="395" y="149.067" fill="#000" font-family="sans-serif" font-size="13" lengthAdjust="spacing" textLength="23">has</text><path id="connection_address_kind-backto-connection_info" fill="none" d="M543.44,102.72 C504.79,131.11 456.57,166.54 425.53,189.34" codeLine="77" style="stroke:#a80036;stroke-width:1"/><polygon fill="#A80036" points="547.62 99.65 537.998 101.751 543.589 102.609 542.732 108.2 547.62 99.65" style="stroke:#a80036;stroke-width:1"/><text x="495" y="149.067" fill="#000" font-family="sans-serif" font-size="13" lengthAdjust="spacing" textLength="23">has</text><path id="connection_info-backto-connection" fill="none" d="M452.45,249.15 C486.58,274.22 523,311.61 523,357 C523,357 523,357 523,559.5 C523,660.74 517.94,689.55 479,783 C467.66,810.21 449.98,837.63 433.67,859.87" codeLine="78" style="stroke:#a80036;stroke-width:1"/><polygon fill="none" points="448.04 254.62 435.53 237.52 455.97 243.08 448.04 254.62" style="stroke:#a80036;stroke-width:1"/><text x="524" y="563.067" fill="#000" font-family="sans-serif" font-size="13" lengthAdjust="spacing" textLength="51">extends</text><path id="connection-to-message" fill="none" d="M329.94,946.21 C262.29,987.91 159.16,1063.73 113,1161 C92.73,1203.71 96.17,1260.17 100.85,1293.63" codeLine="79" style="stroke:#a80036;stroke-width:1"/><polygon fill="#A80036" points="101.61 1298.8 104.255 1289.313 100.881 1293.853 96.34 1290.479 101.61 1298.8" style="stroke:#a80036;stroke-width:1"/><text x="142" y="1127.067" fill="#000" font-family="sans-serif" font-size="13" lengthAdjust="spacing" textLength="38">sends</text><path id="connection-backto-concrete_connection" fill="none" d="M395.39,979.38 C395.8,999.63 396.22,1020.42 396.53,1035.67" codeLine="80" style="stroke:#a80036;stroke-width:1"/><polygon fill="none" points="388.39 979.26 394.98 959.12 402.38 978.98 388.39 979.26" style="stroke:#a80036;stroke-width:1"/><text x="397" y="1002.067" fill="#000" font-family="sans-serif" font-size="13" lengthAdjust="spacing" textLength="76">implements</text><path id="concrete_connection-backto-concrete_connector" fill="none" d="M439.85,1097.16 C454.37,1108.63 470.97,1120.94 487,1131 C504.03,1141.7 523.26,1151.96 541.25,1160.86" codeLine="81" style="stroke:#a80036;stroke-width:1"/><polygon fill="none" points="435.06 1102.28 423.92 1084.25 443.87 1091.41 435.06 1102.28" style="stroke:#a80036;stroke-width:1"/><text x="488" y="1127.067" fill="#000" font-family="sans-serif" font-size="13" lengthAdjust="spacing" textLength="76">implements</text><path id="concrete_connection-backto-concrete_server_connection" fill="none" d="M335.44,1094.66 C325.96,1100.69 316.51,1107.22 308,1114 C287.9,1130.02 267.95,1151.4 254,1167.48" codeLine="82" style="stroke:#a80036;stroke-width:1"/><polygon fill="none" points="332.16 1088.46 352.89 1084.09 339.41 1100.44 332.16 1088.46" style="stroke:#a80036;stroke-width:1"/><text x="309" y="1127.067" fill="#000" font-family="sans-serif" font-size="13" lengthAdjust="spacing" textLength="76">implements</text><path id="fetch_handler-to-message" fill="none" d="M374.98,1215.8 C312.37,1240.52 214.55,1279.14 155.72,1302.37" codeLine="83" style="stroke:#a80036;stroke-width:1"/><polygon fill="#A80036" points="150.86 1304.29 160.701 1304.688 155.507 1302.445 157.749 1297.252 150.86 1304.29" style="stroke:#a80036;stroke-width:1"/><text x="281" y="1265.067" fill="#000" font-family="sans-serif" font-size="13" lengthAdjust="spacing" textLength="50">handles</text><path id="connection_user-to-connection" fill="none" d="M394,783.02 C394,803.27 394,830.74 394,854.81" codeLine="84" style="stroke:#a80036;stroke-width:1"/><polygon fill="#A80036" points="394 859.89 398 850.89 394 854.89 390 850.89 394 859.89" style="stroke:#a80036;stroke-width:1"/><text x="395" y="826.067" fill="#000" font-family="sans-serif" font-size="13" lengthAdjust="spacing" textLength="30">uses</text><path id="connection_info-backto-acceptor" fill="none" d="M348.77,250.3 C321.49,271.9 286.84,299.34 259.5,320.98" codeLine="85" style="stroke:#a80036;stroke-width:1"/><polygon fill="none" points="344.65 244.64 364.68 237.71 353.34 255.61 344.65 244.64" style="stroke:#a80036;stroke-width:1"/><text x="316" y="287.067" fill="#000" font-family="sans-serif" font-size="13" lengthAdjust="spacing" textLength="51">extends</text><path id="concrete_connection-to-fetch_handler" fill="none" d="M393.85,1084.14 C392.73,1097.99 392.66,1115.81 397,1131 C399.51,1139.78 403.73,1148.53 408.44,1156.51" codeLine="86" style="stroke:#a80036;stroke-width:1"/><polygon fill="#A80036" points="411.1 1160.86 409.837 1151.092 408.5 1156.589 403.004 1155.252 411.1 1160.86" style="stroke:#a80036;stroke-width:1"/><text x="398" y="1127.067" fill="#000" font-family="sans-serif" font-size="13" lengthAdjust="spacing" textLength="48">invokes</text><path id="concrete_acceptor-to-accept_handler" fill="none" d="M216.97,645.15 C218.66,665.04 221.12,694 223.04,716.68" codeLine="87" style="stroke:#a80036;stroke-width:1"/><polygon fill="#A80036" points="223.47 721.71 226.685 712.4 223.042 716.728 218.714 713.086 223.47 721.71" style="stroke:#a80036;stroke-width:1"/><text x="222" y="688.067" fill="#000" font-family="sans-serif" font-size="13" lengthAdjust="spacing" textLength="48">invokes</text><path id="accept_handler-to-connection" fill="none" d="M257.99,783.02 C280.41,803.7 310.96,831.89 337.44,856.31" codeLine="88" style="stroke:#a80036;stroke-width:1"/><polygon fill="#A80036" points="341.31 859.89 337.406 850.848 337.634 856.5 331.982 856.729 341.31 859.89" style="stroke:#a80036;stroke-width:1"/><text x="306" y="826.067" fill="#000" font-family="sans-serif" font-size="13" lengthAdjust="spacing" textLength="50">handles</text><path id="acceptor-backto-concrete_acceptor" fill="none" d="M214.22,415.17 C214.43,471.72 214.76,556.2 214.91,596.7" codeLine="89" style="stroke:#a80036;stroke-width:1"/><polygon fill="none" points="207.21 415.04 214.14 395.02 221.21 414.99 207.21 415.04" style="stroke:#a80036;stroke-width:1"/><text x="216" y="500.567" fill="#000" font-family="sans-serif" font-size="13" lengthAdjust="spacing" textLength="76">implements</text><path id="acceptor_user-to-acceptor" fill="none" d="M214,244.03 C214,264.79 214,292.86 214,315.82" codeLine="90" style="stroke:#a80036;stroke-width:1"/><polygon fill="#A80036" points="214 320.94 218 311.94 214 315.94 210 311.94 214 320.94" style="stroke:#a80036;stroke-width:1"/><text x="215" y="287.067" fill="#000" font-family="sans-serif" font-size="13" lengthAdjust="spacing" textLength="30">uses</text><path id="concrete_acceptor-to-concrete_server_connection" fill="none" d="M139.84,636.55 C79.92,653.02 6,686.51 6,751.5 C6,751.5 6,751.5 6,1061 C6,1121.08 66.47,1153.61 125.26,1171.04" codeLine="91" style="stroke:#a80036;stroke-width:1;stroke-dasharray:7,7"/><polygon fill="#A80036" points="130.22 1172.48 122.678 1166.147 125.415 1171.097 120.465 1173.834 130.22 1172.48" style="stroke:#a80036;stroke-width:1"/><text x="7" y="914.067" fill="#000" font-family="sans-serif" font-size="13" lengthAdjust="spacing" textLength="75">instantiates</text><path id="connection_info-backto-connection_factory" fill="none" d="M394,257.85 C394,278.04 394,301.79 394,320.98" codeLine="92" style="stroke:#a80036;stroke-width:1"/><polygon fill="none" points="387 257.71 394 237.71 401 257.71 387 257.71" style="stroke:#a80036;stroke-width:1"/><text x="395" y="287.067" fill="#000" font-family="sans-serif" font-size="13" lengthAdjust="spacing" textLength="51">extends</text><path id="connection_factory-backto-concrete_factory" fill="none" d="M394.83,415.25 C395.12,434.98 395.43,456.07 395.66,471.6" codeLine="93" style="stroke:#a80036;stroke-width:1"/><polygon fill="none" points="387.83 415.19 394.53 395.09 401.82 414.98 387.83 415.19" style="stroke:#a80036;stroke-width:1"/><text x="397" y="438.067" fill="#000" font-family="sans-serif" font-size="13" lengthAdjust="spacing" textLength="76">implements</text><path id="concrete_factory-to-concrete_connector" fill="none" d="M422.3,520.04 C475.53,569.38 591,691.31 591,820.5 C591,820.5 591,820.5 591,1061 C591,1093.28 595.96,1129.75 600.35,1155.74" codeLine="94" style="stroke:#a80036;stroke-width:1;stroke-dasharray:7,7"/><polygon fill="#A80036" points="601.22 1160.8 603.619 1151.248 600.363 1155.874 595.737 1152.619 601.22 1160.8" style="stroke:#a80036;stroke-width:1"/><text x="592" y="826.067" fill="#000" font-family="sans-serif" font-size="13" lengthAdjust="spacing" textLength="75">instantiates</text><path id="concrete_factory-to-concrete_acceptor" fill="none" d="M361.96,520.14 C330.99,541.18 285.33,572.21 253.14,594.08" codeLine="95" style="stroke:#a80036;stroke-width:1;stroke-dasharray:7,7"/><polygon fill="#A80036" points="248.89 596.97 258.582 595.221 253.026 594.16 254.087 588.604 248.89 596.97" style="stroke:#a80036;stroke-width:1"/><text x="318" y="563.067" fill="#000" font-family="sans-serif" font-size="13" lengthAdjust="spacing" textLength="75">instantiates</text></g></svg>